<svg width="447" height="347" viewBox="0 0 447 347" fill="none" xmlns="http://www.w3.org/2000/svg" xmlns:xlink="http://www.w3.org/1999/xlink">
<path opacity="0.75" d="M50.327 127.604C50.327 127.604 130.334 -13.5852 297.316 24.884C438.532 57.4173 414.474 257.578 292.228 249.26C208.473 243.566 178.094 271.711 137.163 307.098C72.2377 363.228 -48.611 298.187 50.327 127.598V127.604Z" fill="url(#paint0_linear_1006_2)"/>
<path opacity="0.75" d="M78.7105 111.332C46.953 150.641 33.9361 208.275 43.2493 258.476C54.3667 318.377 126.801 338.122 178.589 292.659C230.376 247.197 256.582 250.4 313.363 254.884C364.388 258.909 401.965 242.076 416.316 211.982C430.667 181.888 414.276 141.757 368.27 145.82C329.588 149.234 297.138 129.388 284.038 90.9696C271.593 54.4811 227.321 46.4943 194.255 50.3412C161.188 54.1818 113.187 68.6651 78.7168 111.332H78.7105Z" fill="url(#paint1_linear_1006_2)"/>
<path opacity="0.75" d="M358.803 248.671C389.434 210.749 401.987 155.152 393.005 106.732C382.284 48.9527 312.424 29.9029 262.473 73.7581C212.523 117.613 187.249 114.524 132.486 110.198C83.271 106.309 47.0305 122.554 33.1903 151.578C19.3501 180.61 35.1598 219.325 79.5313 215.406C116.845 212.109 148.135 231.259 160.772 268.321C172.773 303.515 215.473 311.223 247.369 307.511C279.264 303.807 325.559 289.837 358.803 248.671Z" fill="url(#pattern0_1006_2)"/>
<path opacity="0.5" d="M126.309 277.554C146.001 272.894 158.197 253.112 153.55 233.368C148.902 213.625 129.17 201.398 109.477 206.058C89.7844 210.717 77.5882 230.5 82.2361 250.243C86.884 269.986 106.616 282.214 126.309 277.554Z" fill="url(#paint2_linear_1006_2)"/>
<defs>
<pattern id="pattern0_1006_2" patternContentUnits="objectBoundingBox" width="1" height="1">
<use xlink:href="#image0_1006_2" transform="matrix(0.00138889 0 0 0.0019733 0 -0.175855)"/>
</pattern>
<linearGradient id="paint0_linear_1006_2" x1="12.8266" y1="172.519" x2="393.872" y2="172.519" gradientUnits="userSpaceOnUse">
<stop stop-color="#FA6FF5"/>
<stop offset="1" stop-color="#940E8C"/>
</linearGradient>
<linearGradient id="paint1_linear_1006_2" x1="421.353" y1="183.538" x2="40.308" y2="183.538" gradientUnits="userSpaceOnUse">
<stop stop-color="#260B62"/>
<stop offset="1" stop-color="#531499"/>
</linearGradient>
<linearGradient id="paint2_linear_1006_2" x1="91.9908" y1="267.776" x2="143.943" y2="215.963" gradientUnits="userSpaceOnUse">
<stop stop-color="#940E8C"/>
<stop offset="1" stop-color="#FA6FF5"/>
</linearGradient>
<image/>
</defs>
</svg>
