<svg width="1440" height="6631" viewBox="0 0 1440 6631" preserveAspectRatio="none" fill="none" xmlns="http://www.w3.org/2000/svg">
<g style="mix-blend-mode:multiply" opacity="0.4">
<path d="M205 1205C119.4 931.8 292.666 122.333 401 -19H1187C1032 273.167 877.472 755.862 1071.5 1205C1179.5 1455 1359 1815.5 1305 2291.5C1261.31 2676.62 1133.5 3413.5 1246 3558C1511.02 3898.41 1397 3953 1781 4240.5C1799.09 4254.04 1788.56 6630.87 1433 6715C1295.85 6747.45 972.362 6735.4 667.516 6725.9L63.9998 6734.5C-193.855 6787.45 -33.5 4897 -72.5 4861.5C-255.183 4695.21 -36.5434 3952.51 115 3558C236 3243 423.5 2556.5 456.5 2291.5C491.501 2010.43 312 1546.5 205 1205Z" fill="#0EE5A3"/>
</g>
</svg>
