<?xml version="1.0" encoding="UTF-8" standalone="no"?>
<svg
   xmlns:dc="http://purl.org/dc/elements/1.1/"
   xmlns:cc="http://creativecommons.org/ns#"
   xmlns:rdf="http://www.w3.org/1999/02/22-rdf-syntax-ns#"
   xmlns:svg="http://www.w3.org/2000/svg"
   xmlns="http://www.w3.org/2000/svg"
   xmlns:xlink="http://www.w3.org/1999/xlink"
   xmlns:sodipodi="http://sodipodi.sourceforge.net/DTD/sodipodi-0.dtd"
   xmlns:inkscape="http://www.inkscape.org/namespaces/inkscape"
   width="522.81567"
   height="388.87979"
   viewBox="0 0 522.81567 388.87979"
   version="1.1"
   id="svg918"
   sodipodi:docname="blob4-pink.svg"
   style="fill:none"
   inkscape:version="0.92.5 (2060ec1f9f, 2020-04-08)">
  <metadata
     id="metadata922">
    <rdf:RDF>
      <cc:Work
         rdf:about="">
        <dc:format>image/svg+xml</dc:format>
        <dc:type
           rdf:resource="http://purl.org/dc/dcmitype/StillImage" />
      </cc:Work>
    </rdf:RDF>
  </metadata>
  <sodipodi:namedview
     pagecolor="#ffffff"
     bordercolor="#666666"
     borderopacity="1"
     objecttolerance="10"
     gridtolerance="10"
     guidetolerance="10"
     inkscape:pageopacity="0"
     inkscape:pageshadow="2"
     inkscape:window-width="1848"
     inkscape:window-height="1136"
     id="namedview920"
     showgrid="false"
     inkscape:zoom="2.0626398"
     inkscape:cx="254.44318"
     inkscape:cy="215.89794"
     inkscape:window-x="72"
     inkscape:window-y="27"
     inkscape:window-maximized="1"
     inkscape:current-layer="svg918" />
  <g
     clip-path="url(#clip0_871_176)"
     id="g898"
     transform="translate(-32.556816,-31.125534)">
    <path
       d="m 505.958,284.233 c 0,0 -103.808,177.795 -315.39,126.47 C 11.6346,367.297 45.2525,113.876 200.452,126.289 306.785,134.788 345.813,99.566 398.359,55.3237 481.709,-14.8542 634.268,69.4579 505.958,284.241 Z"
       id="path892"
       inkscape:connector-curvature="0"
       style="opacity:0.75;fill:url(#paint0_linear_871_176)" />
    <path
       d="m 119.867,120.037 c -50.8308,39.105 -83.8985,106.342 -87.1784,171.005 -3.9078,77.159 79.7984,122.896 157.1974,82.116 77.4,-40.779 108.843,-29.091 177.699,-6.797 61.878,20.029 113.279,10.362 139.881,-22.516 26.603,-32.878 18.17,-87.212 -39.888,-95.783 -48.814,-7.21 -83.072,-41.267 -87.943,-92.516 C 375.004,106.87 322.64,83.9484 280.639,78.9304 238.641,73.9044 175.048,77.5948 119.875,120.039 Z"
       id="path894"
       inkscape:connector-curvature="0"
       style="opacity:0.75;fill:url(#paint1_linear_871_176)" />
    <path
       d="M 420.449,133.192 C 361.118,89.5992 291.149,73.3679 235.858,72.4624 180.566,71.5493 138.16,79.9479 122.71,108.955 c -15.449,29.006 7.437,45.992 16.388,54.157 8.943,8.157 28.531,34.938 -21.139,67.083 -59.1575,38.281 -56.3884,111.816 0,148.663 50.411,32.938 108.963,18.133 140.679,0 31.716,-18.133 69.932,-30.818 113.844,-5.441 43.912,25.385 97.251,8.18 113.548,-32.817 17.628,-44.34 27.54,-138.989 -65.573,-207.4 z"
       id="path896"
       inkscape:connector-curvature="0"
       style="opacity:0.75;fill:url(#pattern0_871_176)" />
  </g>
  <defs
     id="defs916">
    <pattern
       id="pattern0_871_176"
       patternContentUnits="objectBoundingBox"
       width="1"
       height="1">
      <use
         xlink:href="#image0_871_176"
         transform="matrix(0.000628055 0 0 0.000812793 -0.123884 -0.020257)"
         id="use900" />
    </pattern>
    <linearGradient
       id="paint0_linear_871_176"
       x1="554.29102"
       y1="227.85699"
       x2="70.133499"
       y2="222.039"
       gradientUnits="userSpaceOnUse">
      <stop
         stop-color="#FA6FF5"
         id="stop903" />
      <stop
         offset="1"
         stop-color="#940E8C"
         id="stop905" />
    </linearGradient>
    <linearGradient
       id="paint1_linear_871_176"
       x1="522.073"
       y1="310.25201"
       x2="51.131599"
       y2="197.75101"
       gradientUnits="userSpaceOnUse">
      <stop
         stop-color="#260B62"
         id="stop908" />
      <stop
         offset="1"
         stop-color="#531499"
         id="stop910" />
    </linearGradient>
    <clipPath
       id="clip0_871_176">
      <rect
         width="568"
         height="440"
         transform="rotate(-179.311,285.32272,221.68901)"
         id="rect913"
         x="0"
         y="0"
         style="fill:#ffffff" />
    </clipPath>
  </defs>
</svg>
