<svg width="434" height="345" viewBox="0 0 434 345" fill="none" xmlns="http://www.w3.org/2000/svg">
<g clip-path="url(#clip0_960_16071)">
<path opacity="0.75" d="M362.943 112.069C289.38 29.7328 210.702 -39.6815 157.172 26.2195C136.094 52.1656 113.966 63.8236 66.3918 81.7204C28.1416 96.1102 14.1024 129.96 22.7804 157.208C34.6738 194.565 63.2206 210.905 103.661 218.687C144.101 226.47 227.159 256.603 313.781 294.957C369.19 319.486 420.822 308.184 431.924 266.939C443.026 225.695 408.137 162.659 362.937 112.069H362.943Z" fill="url(#paint1_linear_960_16071)"/>
<path opacity="0.75" d="M93.3247 194.215C131.784 209.482 168.971 246.514 187.168 288.426C206.468 332.879 236.527 344.441 269.327 344.988C288.532 345.305 335.903 335.432 350.183 293.921C366.76 245.733 336.327 205.327 379.204 151.656C419.955 100.646 429.481 60.7297 396.294 32.5536C367.754 8.32283 322.889 11.3151 268.024 37.5091C238.179 51.7591 202.328 48.4746 168.211 33.7671C121.245 13.5197 72.7976 11.5629 41.567 45.3107C10.3364 79.0649 -12.4504 152.215 93.331 194.215H93.3247Z" fill="url(#paint3_linear_960_16071)"/>
</g>
<defs>
<linearGradient id="paint1_linear_960_16071" x1="227.159" y1="0.000143317" x2="227.159" y2="307.796" gradientUnits="userSpaceOnUse">
<stop stop-color="#FA6FF5"/>
<stop offset="1" stop-color="#940E8C"/>
</linearGradient>
<linearGradient id="paint3_linear_960_16071" x1="28.5388" y1="129.683" x2="418.741" y2="188.556" gradientUnits="userSpaceOnUse">
<stop stop-color="#260B62"/>
<stop offset="1" stop-color="#531499"/>
</linearGradient>

<clipPath id="clip0_960_16071">
<rect width="434" height="345" fill="white"/>
</clipPath>
<clipPath id="clip1_960_16071">
<rect width="96" height="96" fill="white" transform="translate(274 64)"/>
</clipPath>
</defs>
</svg>
